<svg width="32" height="32" viewBox="0 0 32 32" fill="none" xmlns="http://www.w3.org/2000/svg">
<circle cx="16" cy="16" r="16" fill="#363355" fill-opacity="0.1"/>
<path fill-rule="evenodd" clip-rule="evenodd" d="M11.993 8.61523C9.44794 8.61523 7.38477 10.6321 7.38477 13.12V23.2416C7.38477 24.3912 8.7451 25.0304 9.66341 24.3122L11.9294 22.5401C12.1071 22.4012 12.3278 22.3255 12.5552 22.3255H20.0073C22.5524 22.3255 24.6155 20.3086 24.6155 17.8207V13.12C24.6155 10.6321 22.5524 8.61523 20.0073 8.61523H11.993ZM12.308 17.2305C12.9877 17.2305 13.5387 16.6794 13.5387 15.9997C13.5387 15.32 12.9877 14.7689 12.308 14.7689C11.6282 14.7689 11.0772 15.32 11.0772 15.9997C11.0772 16.6794 11.6282 17.2305 12.308 17.2305ZM17.231 15.9997C17.231 16.6794 16.68 17.2305 16.0003 17.2305C15.3205 17.2305 14.7695 16.6794 14.7695 15.9997C14.7695 15.32 15.3205 14.7689 16.0003 14.7689C16.68 14.7689 17.231 15.32 17.231 15.9997ZM19.6926 17.2305C20.3723 17.2305 20.9233 16.6794 20.9233 15.9997C20.9233 15.32 20.3723 14.7689 19.6926 14.7689C19.0128 14.7689 18.4618 15.32 18.4618 15.9997C18.4618 16.6794 19.0128 17.2305 19.6926 17.2305Z" fill="#6A678E"/>
</svg>
