<svg width="34" height="34" viewBox="0 0 34 34" fill="none" xmlns="http://www.w3.org/2000/svg">
<circle cx="17" cy="17" r="17" fill="#F8F9FD"/>
<circle cx="17" cy="17" r="9" stroke="#C4C1DD" stroke-width="2"/>
<path d="M19.8284 14.1716C20.517 13.483 20.8612 13.1388 20.7757 12.6303C20.6901 12.1219 20.3337 11.9488 19.6209 11.6027C18.8117 11.2098 17.9166 11 17 11C15.4087 11 13.8826 11.6321 12.7574 12.7574C11.6321 13.8826 11 15.4087 11 17C11 17.9167 11.2098 18.8117 11.6027 19.6209C11.9488 20.3337 12.1219 20.6901 12.6303 20.7757C13.1388 20.8612 13.483 20.517 14.1716 19.8284L17 17L19.8284 14.1716Z" fill="#C4C1DD"/>
</svg>
