<svg width="24" height="24" viewBox="0 0 24 24" fill="none" xmlns="http://www.w3.org/2000/svg">
<g clip-path="url(#clip0_3932_112994)">
<path d="M15.2639 2.39999C15.4439 2.37599 15.5759 2.42399 15.7559 2.48399C16.4279 2.71199 16.7519 3.43199 16.5479 4.10399C16.3439 4.76399 15.3479 7.75199 15.3479 8.39999C15.3479 9.03599 16.2479 9.59999 16.9679 9.59999H20.5679C21.2879 9.59999 21.7679 10.08 21.7679 10.8C21.7679 11.52 19.3679 19.2 19.3679 19.2C19.1639 19.668 18.7079 20.4 18.1679 20.4H7.1999V9.59999H9.7679C10.2599 9.10799 13.7279 3.94799 14.0639 3.27599C14.3159 2.78399 14.7839 2.45999 15.2639 2.39999ZM2.3999 9.59999H4.7999V20.4H2.3999V9.59999Z" fill="#9C9AB5"/>
</g>
<defs>
<clipPath id="clip0_3932_112994">
<rect width="24" height="24" fill="white"/>
</clipPath>
</defs>
</svg>
